<?xml version="1.0" encoding="utf-8"?>
<!-- Generator: Adobe Illustrator 16.0.0, SVG Export Plug-In . SVG Version: 6.00 Build 0)  -->
<!DOCTYPE svg PUBLIC "-//W3C//DTD SVG 1.1//EN" "http://www.w3.org/Graphics/SVG/1.1/DTD/svg11.dtd">
<svg version="1.1" id="Capa_1" xmlns="http://www.w3.org/2000/svg" xmlns:xlink="http://www.w3.org/1999/xlink" x="0px" y="0px"
	 width="256px" height="256px" viewBox="0 0 256 256" enable-background="new 0 0 256 256" xml:space="preserve">
<g>
	<path d="M227.758,195.898h28.271c-8.847,17.963-22.432,32.034-40.751,42.213c-20.974,11.681-46.548,17.521-76.724,17.521
		c-29.204,0-54.425-4.934-75.663-14.801c-21.239-9.87-37.036-24.426-47.39-43.673C5.148,177.911-0.029,156.961-0.029,134.306
		c0-24.866,5.884-48.03,17.655-69.491c11.767-21.458,27.876-37.566,48.318-48.319C86.386,5.744,109.75,0.367,136.033,0.367
		c22.3,0,42.122,4.337,59.467,13.009c17.343,8.675,30.598,20.997,39.756,36.969c9.16,15.976,13.737,33.432,13.737,52.367
		c0,22.566-6.947,42.965-20.839,61.194c-17.436,23.012-39.776,34.514-67.033,34.514c-7.347,0-12.876-1.281-16.593-3.85
		c-3.718-2.564-6.196-6.325-7.434-11.282c-10.444,10.088-22.48,15.132-36.106,15.132c-14.692,0-26.881-5.063-36.571-15.198
		c-9.69-10.132-14.535-23.605-14.535-40.421c0-20.794,5.84-39.777,17.522-56.946c14.157-20.884,32.3-31.328,54.424-31.328
		c15.75,0,27.389,6.02,34.912,18.053l3.319-14.734h35.043l-20.042,95.176c-1.242,6.021-1.859,9.913-1.859,11.683
		c0,2.213,0.508,3.871,1.526,4.978c1.016,1.108,2.232,1.66,3.648,1.66c4.248,0,9.736-2.566,16.46-7.7
		c9.027-6.724,16.328-15.75,21.902-27.08c5.575-11.326,8.364-23.05,8.364-35.177c0-21.77-7.879-39.976-23.63-54.623
		c-15.749-14.646-37.742-21.969-65.972-21.969c-23.982,0-44.315,4.891-60.995,14.668c-16.683,9.78-29.25,23.542-37.699,41.283
		c-8.453,17.745-12.677,36.219-12.677,55.421c0,18.674,4.713,35.664,14.138,50.974c9.424,15.309,22.652,26.482,39.69,33.518
		c17.034,7.035,36.524,10.552,58.473,10.552c21.148,0,39.335-2.942,54.556-8.826C206.206,216.493,218.465,207.666,227.758,195.898z
		 M84.263,141.341c0,11.239,2.276,19.513,6.835,24.823c4.557,5.31,10.198,7.965,16.925,7.965c5.044,0,9.776-1.238,14.204-3.718
		c3.361-1.768,6.68-4.557,9.955-8.362c4.689-5.396,8.738-13.273,12.146-23.629c3.405-10.354,5.11-19.998,5.11-28.938
		c0-9.999-2.323-17.675-6.969-23.031c-4.646-5.353-10.51-8.032-17.588-8.032c-7.613,0-14.648,2.944-21.107,8.828
		c-6.461,5.888-11.329,14.271-14.601,25.155C85.899,123.287,84.263,132.935,84.263,141.341z"/>
</g>
</svg>
