<?xml version="1.0" encoding="utf-8"?>
<!-- Generator: Adobe Illustrator 16.0.0, SVG Export Plug-In . SVG Version: 6.00 Build 0)  -->
<!DOCTYPE svg PUBLIC "-//W3C//DTD SVG 1.1//EN" "http://www.w3.org/Graphics/SVG/1.1/DTD/svg11.dtd">
<svg version="1.1" xmlns="http://www.w3.org/2000/svg" xmlns:xlink="http://www.w3.org/1999/xlink" x="0px" y="0px" width="1080px"
	 height="351.772px" viewBox="0 0 1080 351.772" enable-background="new 0 0 1080 351.772" xml:space="preserve">
<g id="Capa_1" display="none">
	<g display="inline">
		<g>
			<path d="M338.833,321.1c0,3.196,2.635,4.792,7.908,4.792c5.271,0,14.618-3.116,28.038-9.346
				c13.418-6.23,25.233-12.535,35.464-18.931l15.334-9.585c0.315,0.644,0.48,1.92,0.48,3.835c0,1.919-1.439,3.52-4.315,4.794
				c-43.13,29.397-73.167,44.09-90.098,44.09c-8.313,0-12.461-4.156-12.461-12.459c0-8.308,6.866-24.122,20.607-47.447
				l84.348-146.652c0-0.959-0.56-1.436-1.677-1.436c-1.124,0-3.278,1.518-6.469,4.551c-3.198,3.039-32.35,32.671-87.464,88.903
				c-55.113,56.233-87.463,89.305-97.048,99.204c-5.436,6.397-10.229,9.585-14.377,9.585c-3.52,0-5.272-2.074-5.272-6.229
				c0-9.586,21.004-46.247,63.022-109.991c42.01-63.738,63.816-99.444,65.417-107.113c0-0.956-0.404-1.435-1.198-1.435
				c-0.8,0-3.519,2.32-8.147,6.949c-4.635,4.635-37.786,39.059-99.445,103.276c-61.667,64.223-97.454,101.928-107.352,113.106
				c-2.562,1.916-5.356,2.877-8.388,2.877c-3.032,0-4.553-1.439-4.553-4.314c0-2.231,1.438-5.75,4.314-10.543
				c2.874-4.793,6.95-11.66,12.22-20.607c5.273-8.942,14.694-25.882,28.276-50.804c13.577-24.921,25.559-48.403,35.945-70.448
				c10.379-22.047,19.805-45.69,28.276-70.93c8.461-25.237,12.7-45.844,12.7-61.826c0-26.516-11.503-39.776-34.506-39.776
				c-26.524,0-54.561,7.592-84.11,22.764c-29.549,15.181-53.594,32.673-72.126,52.48c-18.526,19.812-27.799,36.9-27.799,51.277
				c0,16.62,13.502,24.922,40.5,24.922c27.003,0,52.718-8.385,77.159-25.161c24.442-16.772,41.768-34.746,51.999-53.914
				c1.594-1.916,2.874-2.877,3.835-2.877c0.958,0,1.436,2.156,1.436,6.47c0,4.314-3.519,11.743-10.543,22.284
				c-7.032,10.545-16.22,21.171-27.557,31.872c-11.345,10.708-25.722,19.887-43.134,27.557
				c-17.409,7.669-35.223,11.501-53.434,11.501C18.212,176.364,0,164.386,0,140.422c0-13.099,5.753-27.713,17.254-43.851
				c11.502-16.133,26.523-31.393,45.049-45.769c18.534-14.379,40.977-26.437,67.336-36.185C155.997,4.875,182.275,0,208.477,0
				c29.712,0,44.57,15.501,44.57,46.488c0,15.98-3.916,35.787-11.742,59.428c-7.832,23.645-17.178,46.651-28.035,69.012
				c-22.046,43.777-42.819,80.835-62.302,111.187l-11.504,18.692c1.272-0.639,16.932-16.61,46.968-47.927
				c99.362-102.874,153.36-158.632,161.986-167.261c6.067,0,9.743,0.805,11.023,2.399c1.274,1.602,1.917,2.717,1.917,3.354v0.478
				c0,8.629-28.92,58.312-86.744,149.052c-22.368,34.826-34.507,53.838-36.426,57.027l-4.312,9.586
				c2.555,0,19.005-16.055,49.364-48.166c30.348-32.11,61.103-64.218,92.256-96.329c31.15-32.11,48.958-48.164,53.436-48.164
				c1.917,0,3.992,0.882,6.229,2.634c2.233,1.761,3.357,3.596,3.357,5.513c0,1.915-0.48,3.833-1.438,5.752L351.293,288.03
				C342.981,303.368,338.833,314.391,338.833,321.1z"/>
			<path d="M502.733,276.05c-1.919,0-2.876-1.114-2.876-3.355l1.438-3.354c5.749-5.429,8.626-10.063,8.626-13.896
				c0-4.794-2.561-7.19-7.668-7.19c-11.187,0-26.282,7.753-45.289,23.246c-19.013,15.498-28.515,29.314-28.515,41.454
				c0,5.113,3.354,7.668,10.062,7.668c6.71,0,14.453-2.794,23.246-8.387c8.782-5.586,16.295-11.182,22.525-16.774
				c6.229-5.587,9.659-8.389,10.304-8.389c3.189,0.322,4.793,1.92,4.793,4.794c0,1.28-2.479,5.437-7.43,12.461
				c-4.956,7.031-7.428,12.623-7.428,16.773c0,3.196,2.636,4.792,7.907,4.792c5.273,0,14.616-3.116,28.036-9.346
				c13.42-6.23,25.236-12.535,35.466-18.931l15.336-9.585c0.316,0.644,0.478,1.92,0.478,3.835c0,1.919-1.435,3.52-4.311,4.794
				c-43.134,29.397-73.171,44.09-90.099,44.09c-8.313,0-12.462-4.156-12.462-12.459c0-3.515,0.636-7.19,1.916-11.022
				c-2.238,2.56-8.866,6.467-19.89,11.738c-11.022,5.273-20.846,7.91-29.472,7.91c-8.626,0-12.941-3.992-12.941-11.981
				c0-18.85,13.097-38.103,39.299-57.75c26.194-19.65,48.239-29.477,66.136-29.477c10.543,0,15.815,4.481,15.815,13.422
				c0,5.114-3.198,10.542-9.584,16.293C509.756,273.176,505.284,276.05,502.733,276.05z"/>
			<path d="M557.365,296.659c6.064-3.514,14.054-9.106,23.962-16.776c24.277-19.167,37.217-28.753,38.817-28.753
				c4.793,0,7.191,2.081,7.191,6.23c0,4.153-2.481,10.542-7.431,19.17c-4.955,8.624-10.543,17.575-16.771,26.838
				c-6.232,9.27-9.825,14.854-10.786,16.773c0.315,0.322,1.033,0.479,2.158,0.479c1.116,0,7.43-4.231,18.93-12.701
				c11.501-8.461,23.485-17.41,35.945-26.837c12.461-9.422,19.803-14.859,22.045-16.296c2.229-1.438,4.31-2.156,6.23-2.156
				c3.833,0.32,5.749,2.56,5.749,6.709c0,1.604-5.435,9.667-16.295,24.205c-10.865,14.54-16.292,23.885-16.292,28.035
				c0,2.873,3.428,4.312,10.302,4.312c6.87,0,17.014-3.116,30.431-9.346c13.422-6.23,25.239-12.535,35.468-18.931l15.336-9.585
				c0.314,0.644,0.479,1.92,0.479,3.835c0,1.919-1.438,3.52-4.314,4.794c-43.131,29.397-73.167,44.09-90.098,44.09
				c-9.906,0-14.854-3.833-14.854-11.504c0-7.345,2.153-14.377,6.468-21.084c4.309-6.71,8.065-12.378,11.261-17.015
				c3.191-4.627,4.794-7.106,4.794-7.43c-14.698,10.545-32.11,23.172-52.237,37.863c-20.13,14.69-31.475,22.046-34.028,22.046
				c-1.918,0-2.874-2.241-2.874-6.71c0-4.473,6.305-16.129,18.929-34.987c12.618-18.846,18.932-28.911,18.932-30.191
				c0-1.271-0.321-1.918-0.958-1.918l-4.792,2.396l-23.965,19.17c-1.603,1.28-4.634,3.355-9.104,6.23
				c-4.478,2.877-7.271,4.313-8.387,4.313c-1.115,0-1.678-0.718-1.678-2.157C555.927,298.336,556.407,297.302,557.365,296.659z"/>
			<path d="M788.358,328.29c0-3.515,2.64-9.422,7.909-17.735c5.274-8.303,8.783-13.573,10.545-15.814
				c1.75-2.229,4.389-5.749,7.906-10.541c-38.024,34.507-64.22,51.757-78.599,51.757c-7.979,0-11.977-3.354-11.977-10.064
				c0-9.584,16.128-36.578,48.4-80.99c1.595-2.556,3.673-3.837,6.231-3.837c7.347,2.24,11.021,3.837,11.021,4.793
				c0,0.958-0.954,2.875-2.876,5.75c-27.481,37.066-41.215,57.915-41.215,62.545c0,4.635,1.594,6.947,4.793,6.947
				c8.94,0,24.839-10.305,47.686-30.912c22.839-20.607,39.376-37.619,49.604-51.041c1.271-2.23,3.354-3.354,6.229-3.354
				c6.389,1.281,9.586,2.559,9.586,3.834c-3.52,5.114-8.313,11.825-14.377,20.127c-6.074,8.313-11.023,15.099-14.86,20.369
				c-3.833,5.271-7.828,10.949-11.978,17.014c-7.991,10.866-12.782,18.855-14.378,23.963c0,3.196,2.634,4.792,7.908,4.792
				c5.27,0,14.614-3.116,28.037-9.346c13.416-6.23,25.236-12.535,35.462-18.931l15.339-9.585c0.313,0.644,0.479,1.92,0.479,3.835
				c0,1.919-1.44,3.52-4.316,4.794c-43.13,29.397-73.168,44.09-90.099,44.09C792.51,340.749,788.358,336.593,788.358,328.29z"/>
			<path d="M942.675,243.139c0-3.188,3.359-7.667,10.068-13.415c6.707-5.754,10.062-12.058,10.062-18.932
				c0-6.869-2.321-14.856-6.947-23.962c-4.636-9.107-6.952-13.975-6.952-14.62c0-0.633,0.555-0.956,1.678-0.956
				c1.115,0,1.993,0.322,2.637,0.956c13.101,13.422,19.652,28.756,19.652,46.01c0,7.032-1.603,14.543-4.791,22.525
				c-3.199,7.99-8.151,11.981-14.861,11.981c-3.198,0-5.675-0.793-7.429-2.396C944.029,248.735,942.991,246.339,942.675,243.139z"/>
			<path d="M1033.732,280.843c0,0-1.545-1.976-2.873-4.313c-2.059-3.613-2.4-7.983-2.4-12.462c0-10.857,5.587-21.247,16.774-31.153
				c11.181-9.896,20.608-14.854,28.278-14.854c4.147,0,6.229,1.999,6.229,5.989c0,4-6.396,13.657-19.168,28.996
				c-1.282,1.603-2.565,2.971-4.315,4.791c-1.572,1.634-2.15,2.252-4.201,3.997c-0.177,0.152,7.006-8.434,10.961-15.767
				c2.369-4.392,5.223-10.038,5.7-13.392c0.129-0.9-0.088-2.885-2.876-3.114c-5.16-0.425-9.222,1.164-16.771,7.907
				c-7.526,6.722-8.313,12.481-8.628,15.337c-0.301,2.71,0.105,7.641,3.354,11.262c0.442,0.492,1.833,2.395,3.354,3.834
				c1.902,1.803,4.473,4.396,8.63,8.389c4.147,3.998,7.501,7.269,10.062,9.823c7.025,7.031,10.546,15.814,10.546,26.359
				c0,10.542-6.551,19.73-19.652,27.556c-13.105,7.825-26.76,11.743-40.975,11.743c-14.213,0-21.325-4.239-21.325-12.701
				s6.552-16.212,19.646-23.241c1.603-0.86,18.464-9.021,16.952-8.035c-10.298,6.707-17.161,15.133-17.429,24.565
				c-0.178,6.166,6.195,9.288,13.175,9.346c5.531,0.05,15.396-1.121,23.483-6.229c6.044-3.813,8.694-8.181,10.31-13.896
				c2.005-7.11-0.836-14.721-5.275-20.129c-3.764-4.585-5.509-5.909-10.778-10.066
				C1039.244,287.235,1033.732,280.843,1033.732,280.843z"/>
		</g>
		<text transform="matrix(1 0 0 1 9.4951 446.9502)"><tspan x="0" y="0" font-family="'CenturyGothic'" font-size="74.8834" letter-spacing="37">E L E G A N C </tspan><tspan x="1021.163" y="0" font-family="'CenturyGothic'" font-size="74.8834">E</tspan></text>
	</g>
</g>
<g id="Capa_2">
	<g>
		<g>
			<g>
				<path d="M338.833,321.1c0,3.196,2.635,4.792,7.908,4.792c5.271,0,14.618-3.116,28.038-9.346
					c13.418-6.23,25.233-12.535,35.464-18.931l15.334-9.585c0.315,0.644,0.48,1.92,0.48,3.835c0,1.919-1.439,3.52-4.315,4.794
					c-43.13,29.397-73.167,44.09-90.098,44.09c-8.313,0-12.461-4.156-12.461-12.459c0-8.308,6.866-24.122,20.607-47.447
					l84.348-146.652c0-0.959-0.56-1.436-1.677-1.436c-1.124,0-3.278,1.518-6.469,4.551c-3.198,3.039-32.35,32.671-87.464,88.903
					c-55.113,56.233-87.463,89.305-97.048,99.204c-5.436,6.397-10.229,9.585-14.377,9.585c-3.52,0-5.272-2.074-5.272-6.229
					c0-9.586,21.004-46.247,63.022-109.991c42.01-63.738,63.816-99.444,65.417-107.113c0-0.956-0.404-1.435-1.198-1.435
					c-0.8,0-3.519,2.32-8.147,6.949c-4.635,4.635-37.786,39.059-99.445,103.276c-61.667,64.223-97.454,101.928-107.352,113.106
					c-2.562,1.916-5.356,2.877-8.388,2.877c-3.032,0-4.553-1.439-4.553-4.314c0-2.231,1.438-5.75,4.314-10.543
					c2.874-4.793,6.95-11.66,12.22-20.607c5.273-8.942,14.694-25.882,28.276-50.804c13.577-24.921,25.559-48.403,35.945-70.448
					c10.379-22.047,19.805-45.69,28.276-70.93c8.461-25.237,12.7-45.844,12.7-61.826c0-26.516-11.503-39.776-34.506-39.776
					c-26.524,0-54.561,7.592-84.11,22.764c-29.549,15.181-53.594,32.673-72.126,52.48c-18.526,19.812-27.799,36.9-27.799,51.277
					c0,16.62,13.502,24.922,40.5,24.922c27.003,0,52.718-8.385,77.159-25.161c24.442-16.772,41.768-34.746,51.999-53.914
					c1.594-1.916,2.874-2.877,3.835-2.877c0.958,0,1.436,2.156,1.436,6.47c0,4.314-3.519,11.743-10.543,22.284
					c-7.032,10.545-16.22,21.171-27.557,31.872c-11.345,10.708-25.722,19.887-43.134,27.557
					c-17.409,7.669-35.223,11.501-53.434,11.501C18.212,176.364,0,164.386,0,140.422c0-13.099,5.753-27.713,17.254-43.851
					c11.502-16.133,26.523-31.393,45.049-45.769c18.534-14.379,40.977-26.437,67.336-36.185C155.997,4.875,182.275,0,208.477,0
					c29.712,0,44.57,15.501,44.57,46.488c0,15.98-3.916,35.787-11.742,59.428c-7.832,23.645-17.178,46.651-28.035,69.012
					c-22.046,43.777-42.819,80.835-62.302,111.187l-11.504,18.692c1.272-0.639,16.932-16.61,46.968-47.927
					c99.362-102.874,153.36-158.632,161.986-167.261c6.067,0,9.743,0.805,11.023,2.399c1.274,1.602,1.917,2.717,1.917,3.354v0.478
					c0,8.629-28.92,58.312-86.744,149.052c-22.368,34.826-34.507,53.838-36.426,57.027l-4.312,9.586
					c2.555,0,19.005-16.055,49.364-48.166c30.348-32.11,61.103-64.218,92.256-96.329c31.15-32.11,48.958-48.164,53.436-48.164
					c1.917,0,3.992,0.882,6.229,2.634c2.233,1.761,3.357,3.596,3.357,5.513c0,1.915-0.48,3.833-1.438,5.752L351.293,288.03
					C342.981,303.368,338.833,314.391,338.833,321.1z"/>
			</g>
			<g>
				<path d="M502.733,276.05c-1.919,0-2.876-1.114-2.876-3.355l1.438-3.354c5.749-5.429,8.626-10.063,8.626-13.896
					c0-4.794-2.561-7.19-7.668-7.19c-11.187,0-26.282,7.753-45.289,23.246c-19.013,15.498-28.515,29.314-28.515,41.454
					c0,5.113,3.354,7.668,10.062,7.668c6.71,0,14.453-2.794,23.246-8.387c8.782-5.586,16.295-11.182,22.525-16.774
					c6.229-5.587,9.659-8.389,10.304-8.389c3.189,0.322,4.793,1.92,4.793,4.794c0,1.28-2.479,5.437-7.43,12.461
					c-4.956,7.031-7.428,12.623-7.428,16.773c0,3.196,2.636,4.792,7.907,4.792c5.273,0,14.616-3.116,28.036-9.346
					c13.42-6.23,25.236-12.535,35.466-18.931l15.336-9.585c0.316,0.644,0.478,1.92,0.478,3.835c0,1.919-1.435,3.52-4.311,4.794
					c-43.134,29.397-73.171,44.09-90.099,44.09c-8.313,0-12.462-4.156-12.462-12.459c0-3.515,0.636-7.19,1.916-11.022
					c-2.238,2.56-8.866,6.467-19.89,11.738c-11.022,5.273-20.846,7.91-29.472,7.91c-8.626,0-12.941-3.992-12.941-11.981
					c0-18.85,13.097-38.103,39.299-57.75c26.194-19.65,48.239-29.477,66.136-29.477c10.543,0,15.815,4.481,15.815,13.422
					c0,5.114-3.198,10.542-9.584,16.293C509.756,273.176,505.284,276.05,502.733,276.05z"/>
			</g>
			<g>
				<path d="M557.365,296.659c6.064-3.514,14.054-9.106,23.962-16.776c24.277-19.167,37.217-28.753,38.817-28.753
					c4.793,0,7.191,2.081,7.191,6.23c0,4.153-2.481,10.542-7.431,19.17c-4.955,8.624-10.543,17.575-16.771,26.838
					c-6.232,9.27-9.825,14.854-10.786,16.773c0.315,0.322,1.033,0.479,2.158,0.479c1.116,0,7.43-4.231,18.93-12.701
					c11.501-8.461,23.485-17.41,35.945-26.837c12.461-9.422,19.803-14.859,22.045-16.296c2.229-1.438,4.31-2.156,6.23-2.156
					c3.833,0.32,5.749,2.56,5.749,6.709c0,1.604-5.435,9.667-16.295,24.205c-10.865,14.54-16.292,23.885-16.292,28.035
					c0,2.873,3.428,4.312,10.302,4.312c6.87,0,17.014-3.116,30.431-9.346c13.422-6.23,25.239-12.535,35.468-18.931l15.336-9.585
					c0.314,0.644,0.479,1.92,0.479,3.835c0,1.919-1.438,3.52-4.314,4.794c-43.131,29.397-73.167,44.09-90.098,44.09
					c-9.906,0-14.854-3.833-14.854-11.504c0-7.345,2.153-14.377,6.468-21.084c4.309-6.71,8.065-12.378,11.261-17.015
					c3.191-4.627,4.794-7.106,4.794-7.43c-14.698,10.545-32.11,23.172-52.237,37.863c-20.13,14.69-31.475,22.046-34.028,22.046
					c-1.918,0-2.874-2.241-2.874-6.71c0-4.473,6.305-16.129,18.929-34.987c12.618-18.846,18.932-28.911,18.932-30.191
					c0-1.271-0.321-1.918-0.958-1.918l-4.792,2.396l-23.965,19.17c-1.603,1.28-4.634,3.355-9.104,6.23
					c-4.478,2.877-7.271,4.313-8.387,4.313c-1.115,0-1.678-0.718-1.678-2.157C555.927,298.336,556.407,297.302,557.365,296.659z"/>
			</g>
			<g>
				<path d="M788.358,328.29c0-3.515,2.64-9.422,7.909-17.735c5.274-8.303,8.783-13.573,10.545-15.814
					c1.75-2.229,4.389-5.749,7.906-10.541c-38.024,34.507-64.22,51.757-78.599,51.757c-7.979,0-11.977-3.354-11.977-10.064
					c0-9.584,16.128-36.578,48.4-80.99c1.595-2.556,3.673-3.837,6.231-3.837c7.347,2.24,11.021,3.837,11.021,4.793
					c0,0.958-0.954,2.875-2.876,5.75c-27.481,37.066-41.215,57.915-41.215,62.545c0,4.635,1.594,6.947,4.793,6.947
					c8.94,0,24.839-10.305,47.686-30.912c22.839-20.607,39.376-37.619,49.604-51.041c1.271-2.23,3.354-3.354,6.229-3.354
					c6.389,1.281,9.586,2.559,9.586,3.834c-3.52,5.114-8.313,11.825-14.377,20.127c-6.074,8.313-11.023,15.099-14.86,20.369
					c-3.833,5.271-7.828,10.949-11.978,17.014c-7.991,10.866-12.782,18.855-14.378,23.963c0,3.196,2.634,4.792,7.908,4.792
					c5.27,0,14.614-3.116,28.037-9.346c13.416-6.23,25.236-12.535,35.462-18.931l15.339-9.585c0.313,0.644,0.479,1.92,0.479,3.835
					c0,1.919-1.44,3.52-4.316,4.794c-43.13,29.397-73.168,44.09-90.099,44.09C792.51,340.749,788.358,336.593,788.358,328.29z"/>
			</g>
			<g>
				<path d="M942.675,243.139c0-3.188,3.359-7.667,10.068-13.415c6.707-5.754,10.062-12.058,10.062-18.932
					c0-6.869-2.321-14.856-6.947-23.962c-4.636-9.107-6.952-13.975-6.952-14.62c0-0.633,0.555-0.956,1.678-0.956
					c1.115,0,1.993,0.322,2.637,0.956c13.101,13.422,19.652,28.756,19.652,46.01c0,7.032-1.603,14.543-4.791,22.525
					c-3.199,7.99-8.151,11.981-14.861,11.981c-3.198,0-5.675-0.793-7.429-2.396C944.029,248.735,942.991,246.339,942.675,243.139z"
					/>
			</g>
			<g>
				<path d="M1033.732,280.843c0,0-1.545-1.976-2.873-4.313c-2.059-3.613-2.4-7.983-2.4-12.462c0-10.857,5.587-21.247,16.774-31.153
					c11.181-9.896,20.608-14.854,28.278-14.854c4.147,0,6.229,1.999,6.229,5.989c0,4-6.396,13.657-19.168,28.996
					c-1.282,1.603-2.565,2.971-4.315,4.791c-1.572,1.634-2.15,2.252-4.201,3.997c-0.177,0.152,7.006-8.434,10.961-15.767
					c2.369-4.392,5.223-10.038,5.7-13.392c0.129-0.9-0.088-2.885-2.876-3.114c-5.16-0.425-9.222,1.164-16.771,7.907
					c-7.526,6.722-8.313,12.481-8.628,15.337c-0.301,2.71,0.105,7.641,3.354,11.262c0.442,0.492,1.833,2.395,3.354,3.834
					c1.902,1.803,4.473,4.396,8.63,8.389c4.147,3.998,7.501,7.269,10.062,9.823c7.025,7.031,10.546,15.814,10.546,26.359
					c0,10.542-6.551,19.73-19.652,27.556c-13.105,7.825-26.76,11.743-40.975,11.743c-14.213,0-21.325-4.239-21.325-12.701
					s6.552-16.212,19.646-23.241c1.603-0.86,18.464-9.021,16.952-8.035c-10.298,6.707-17.161,15.133-17.429,24.565
					c-0.178,6.166,6.195,9.288,13.175,9.346c5.531,0.05,15.396-1.121,23.483-6.229c6.044-3.813,8.694-8.181,10.31-13.896
					c2.005-7.11-0.836-14.721-5.275-20.129c-3.764-4.585-5.509-5.909-10.778-10.066
					C1039.244,287.235,1033.732,280.843,1033.732,280.843z"/>
			</g>
		</g>
		<g display="none">
			<path display="inline" d="M16.077,393.164H46.9v5.266H21.452v16.856h25.229v5.265H21.452v21.134h25.229v5.266H16.077V393.164z"/>
			<path display="inline" d="M151.803,393.164h5.375v48.594h20.695v5.192h-26.07V393.164z"/>
			<path display="inline" d="M282.044,393.164h30.824v5.266h-25.449v16.856h25.229v5.265h-25.229v21.134h25.229v5.266h-30.604
				V393.164z"/>
			<path display="inline" d="M469.655,402.195l-4.168,3.949c-2.999-2.949-6.283-5.186-9.854-6.709
				c-3.571-1.523-7.051-2.286-10.439-2.286c-4.218,0-8.233,1.037-12.048,3.108c-3.815,2.072-6.771,4.881-8.867,8.428
				c-2.097,3.547-3.145,7.295-3.145,11.244c0,4.046,1.084,7.892,3.254,11.535c2.169,3.645,5.167,6.509,8.995,8.593
				c3.827,2.084,8.02,3.127,12.578,3.127c5.533,0,10.213-1.561,14.041-4.681c3.827-3.12,6.094-7.167,6.801-12.14h-17.149v-5.191
				h23.182c-0.049,8.313-2.517,14.912-7.404,19.799c-4.888,4.888-11.426,7.331-19.617,7.331c-9.946,0-17.819-3.388-23.621-10.164
				c-4.461-5.217-6.691-11.25-6.691-18.1c0-5.095,1.28-9.836,3.839-14.224s6.07-7.818,10.531-10.293
				c4.46-2.474,9.506-3.711,15.137-3.711c4.558,0,8.849,0.822,12.871,2.468S465.827,398.563,469.655,402.195z"/>
			<path display="inline" d="M600.665,393.164l25.083,53.786h-5.807l-8.459-17.697h-23.171l-8.379,17.697h-5.996l25.412-53.786
				H600.665z M599.986,404.592l-9.217,19.47h18.389L599.986,404.592z"/>
			<path display="inline" d="M729.736,446.95v-53.786h1.17l35.796,41.229v-41.229h5.302v53.786h-1.206l-35.504-40.728v40.728
				H729.736z"/>
			<path display="inline" d="M930.802,403.146l-4.241,3.254c-2.34-3.047-5.149-5.356-8.428-6.929
				c-3.279-1.572-6.881-2.358-10.805-2.358c-4.291,0-8.264,1.03-11.92,3.09c-3.657,2.06-6.49,4.826-8.502,8.3
				c-2.011,3.474-3.017,7.38-3.017,11.719c0,6.558,2.249,12.029,6.746,16.417c4.498,4.388,10.171,6.582,17.021,6.582
				c7.532,0,13.833-2.949,18.903-8.849l4.241,3.218c-2.682,3.413-6.027,6.052-10.037,7.916c-4.01,1.865-8.488,2.797-13.437,2.797
				c-9.41,0-16.832-3.132-22.268-9.396c-4.559-5.289-6.838-11.676-6.838-19.16c0-7.873,2.761-14.497,8.282-19.872
				c5.521-5.375,12.438-8.063,20.75-8.063c5.021,0,9.555,0.993,13.602,2.979C924.902,396.778,928.218,399.563,930.802,403.146z"/>
			<path display="inline" d="M1037.24,393.164h30.823v5.266h-25.449v16.856h25.229v5.265h-25.229v21.134h25.229v5.266h-30.604
				V393.164z"/>
		</g>
	</g>
</g>
</svg>
