<?xml version="1.0" encoding="utf-8"?>
<!-- Generator: Adobe Illustrator 16.0.0, SVG Export Plug-In . SVG Version: 6.00 Build 0)  -->
<!DOCTYPE svg PUBLIC "-//W3C//DTD SVG 1.1//EN" "http://www.w3.org/Graphics/SVG/1.1/DTD/svg11.dtd">
<svg version="1.1" id="Capa_1" xmlns="http://www.w3.org/2000/svg" xmlns:xlink="http://www.w3.org/1999/xlink" x="0px" y="0px"
	 width="256px" height="256px" viewBox="0 0 256 256" enable-background="new 0 0 256 256" xml:space="preserve">
<g>
	<g>
		<circle cx="128" cy="86.196" r="85.776"/>
		<path d="M128.001,172.47c-47.572,0-86.275-38.702-86.275-86.274S80.429-0.078,128.001-0.078s86.273,38.702,86.273,86.274
			S175.573,172.47,128.001,172.47z M128.001,0.919c-47.022,0-85.278,38.255-85.278,85.277c0,47.021,38.256,85.277,85.278,85.277
			c47.021,0,85.277-38.256,85.277-85.277C213.278,39.174,175.022,0.919,128.001,0.919z"/>
	</g>
	<g>
		<polyline points="53.207,128.215 128.005,255.019 128.005,255.019 202.218,129.226 		"/>
		<polygon points="128.005,256 52.777,128.468 53.636,127.962 128.005,254.037 201.788,128.973 202.646,129.479 		"/>
	</g>
	<g>
		<circle fill="#FFFFFF" cx="128.001" cy="87.141" r="41.073"/>
		<path d="M128.001,128.714c-22.923,0-41.572-18.65-41.572-41.573s18.649-41.572,41.572-41.572s41.572,18.649,41.572,41.572
			S150.924,128.714,128.001,128.714z M128.001,46.566c-22.373,0-40.575,18.202-40.575,40.575c0,22.374,18.202,40.575,40.575,40.575
			s40.575-18.202,40.575-40.575C168.576,64.768,150.374,46.566,128.001,46.566z"/>
	</g>
</g>
</svg>
