<?xml version="1.0" encoding="utf-8"?>
<!-- Generator: Adobe Illustrator 16.0.0, SVG Export Plug-In . SVG Version: 6.00 Build 0)  -->
<!DOCTYPE svg PUBLIC "-//W3C//DTD SVG 1.1//EN" "http://www.w3.org/Graphics/SVG/1.1/DTD/svg11.dtd">
<svg version="1.1" id="Capa_1" xmlns="http://www.w3.org/2000/svg" xmlns:xlink="http://www.w3.org/1999/xlink" x="0px" y="0px"
	 width="256px" height="256px" viewBox="0 0 256 256" enable-background="new 0 0 256 256" xml:space="preserve">
<g>
	<g>
		<path d="M181.308,187.774c-11.354,12.44-14.452,14.834-14.452,14.834s-31.313,17-81.038-32.424
			c-49.423-49.728-32.43-81.038-32.43-81.038s2.4-3.104,14.837-14.455c6.125-5.592,6.983-8.874,5.833-14.743
			c-1.893-9.644-25.1-42.417-32.903-39.837c-8.369,2.769-23.784,12.413-34.098,35.733C2.624,65.876-19.627,120.202,58.33,198.763
			l-0.014,0.017c0,0-0.15-0.164,0.006-0.009c0.155,0.155-0.006,0.009-0.006,0.009l0.014-0.017
			c78.56,77.956,132.342,55.16,142.375,50.725c23.318-10.313,32.44-26.249,35.206-34.621c2.58-7.804-30.201-31.02-39.845-32.914
			C190.193,180.799,186.897,181.646,181.308,187.774z"/>
	</g>
	<g>
		<path d="M255.263,134.5h-14.189c0-59-61.573-120.25-121.573-120.25V0.061c34,0,66.42,15.167,93.179,41.923
			C239.433,68.741,255.263,103.5,255.263,134.5z"/>
	</g>
	<g>
		<path d="M211.75,134.5h-14.188c0-36-38.062-77.212-78.062-77.212V43.099C164.5,43.099,211.75,89.5,211.75,134.5z"/>
	</g>
</g>
</svg>
